<svg width="25" height="28" viewBox="0 0 25 28" fill="none" xmlns="http://www.w3.org/2000/svg">
<path d="M22.5 2.5V2.5C21.8096 2.5 21.25 1.94036 21.25 1.25V1.25C21.25 0.559644 20.6904 0 20 0V0C19.3096 0 18.75 0.559644 18.75 1.25V1.25C18.75 1.94036 18.1904 2.5 17.5 2.5H7.5C6.80964 2.5 6.25 1.94036 6.25 1.25V1.25C6.25 0.559644 5.69036 0 5 0V0C4.30964 0 3.75 0.559644 3.75 1.25V1.25C3.75 1.94036 3.19036 2.5 2.5 2.5V2.5C1.125 2.5 0 3.625 0 5V25C0 26.375 1.125 27.5 2.5 27.5H22.5C23.875 27.5 25 26.375 25 25V5C25 3.625 23.875 2.5 22.5 2.5ZM22.5 23C22.5 24.1046 21.6046 25 20.5 25H4.5C3.39543 25 2.5 24.1046 2.5 23V10.75C2.5 9.64543 3.39543 8.75 4.5 8.75H20.5C21.6046 8.75 22.5 9.64543 22.5 10.75V23Z" fill="#9593F3"/>
<path d="M7.77 15.6875L7 14.3275H6.67V15.6875H5.97V12.1975H7.28C7.55 12.1975 7.78 12.2458 7.97 12.3425C8.16 12.4358 8.30167 12.5642 8.395 12.7275C8.49167 12.8875 8.54 13.0675 8.54 13.2675C8.54 13.4975 8.47333 13.7058 8.34 13.8925C8.20667 14.0758 8.00833 14.2025 7.745 14.2725L8.58 15.6875H7.77ZM6.67 13.8025H7.255C7.445 13.8025 7.58667 13.7575 7.68 13.6675C7.77333 13.5742 7.82 13.4458 7.82 13.2825C7.82 13.1225 7.77333 12.9992 7.68 12.9125C7.58667 12.8225 7.445 12.7775 7.255 12.7775H6.67V13.8025ZM9.87313 13.3175C9.96313 13.1908 10.0865 13.0858 10.2431 13.0025C10.4031 12.9158 10.5848 12.8725 10.7881 12.8725C11.0248 12.8725 11.2381 12.9308 11.4281 13.0475C11.6215 13.1642 11.7731 13.3308 11.8831 13.5475C11.9965 13.7608 12.0531 14.0092 12.0531 14.2925C12.0531 14.5758 11.9965 14.8275 11.8831 15.0475C11.7731 15.2642 11.6215 15.4325 11.4281 15.5525C11.2381 15.6725 11.0248 15.7325 10.7881 15.7325C10.5848 15.7325 10.4048 15.6908 10.2481 15.6075C10.0948 15.5242 9.96979 15.4192 9.87313 15.2925V17.0075H9.17313V12.9175H9.87313V13.3175ZM11.3381 14.2925C11.3381 14.1258 11.3031 13.9825 11.2331 13.8625C11.1665 13.7392 11.0765 13.6458 10.9631 13.5825C10.8531 13.5192 10.7331 13.4875 10.6031 13.4875C10.4765 13.4875 10.3565 13.5208 10.2431 13.5875C10.1331 13.6508 10.0431 13.7442 9.97313 13.8675C9.90646 13.9908 9.87313 14.1358 9.87313 14.3025C9.87313 14.4692 9.90646 14.6142 9.97313 14.7375C10.0431 14.8608 10.1331 14.9558 10.2431 15.0225C10.3565 15.0858 10.4765 15.1175 10.6031 15.1175C10.7331 15.1175 10.8531 15.0842 10.9631 15.0175C11.0765 14.9508 11.1665 14.8558 11.2331 14.7325C11.3031 14.6092 11.3381 14.4625 11.3381 14.2925Z" fill="#9593F3"/>
<path d="M17.5155 16.4496C17.7248 16.2403 17.7248 15.9009 17.5155 15.6915V15.6915C17.3061 15.4822 16.9667 15.4822 16.7574 15.6915L14.1069 18.3421C13.8975 18.5514 13.8975 18.8908 14.1069 19.1001V19.1001C14.3162 19.3095 14.6556 19.3095 14.8649 19.1001L17.5155 16.4496ZM20.5544 15.6902C20.3441 15.4814 20.0046 15.482 19.795 15.6915L15.6082 19.8784C14.9881 20.4984 13.983 20.499 13.3622 19.8797L12.6178 19.1371C12.4083 18.9281 12.0691 18.9283 11.8598 19.1375V19.1375C11.6503 19.347 11.6503 19.6866 11.8598 19.8961L13.0717 21.108C13.8527 21.889 15.1191 21.889 15.9001 21.108L20.5558 16.4523C20.7664 16.2417 20.7658 15.9 20.5544 15.6902V15.6902ZM8.8204 19.1366C8.60915 19.3464 8.60855 19.6878 8.81905 19.8984L11.0637 22.143C11.2731 22.3524 11.6127 22.3524 11.8221 22.143V22.143C12.0314 21.9337 12.0315 21.5944 11.8224 21.3849L9.57981 19.1383C9.3704 18.9285 9.03073 18.9277 8.8204 19.1366V19.1366Z" fill="#9593F3"/>
</svg>
