<svg width="12" height="20" viewBox="0 0 12 20" fill="none" xmlns="http://www.w3.org/2000/svg">
<path d="M6.08889 8.77778C3.56667 8.12222 2.75556 7.44444 2.75556 6.38889C2.75556 5.17778 3.87778 4.33333 5.75556 4.33333C7.1287 4.33333 7.90198 4.78859 8.26876 5.53176C8.5595 6.12086 9.04977 6.66667 9.70671 6.66667C10.4062 6.66667 10.9823 6.07353 10.7688 5.40737C10.4152 4.30413 9.64135 3.34895 8.43162 2.78453C7.86226 2.51889 7.42222 1.99125 7.42222 1.36297C7.42222 0.61022 6.812 0 6.05926 0H5.4173C4.68364 0 4.08889 0.594749 4.08889 1.32841C4.08889 1.95375 3.64582 2.47972 3.0629 2.70613C1.40883 3.34861 0.2 4.62027 0.2 6.41111C0.2 8.97778 2.32222 10.2556 5.42222 11C8.2 11.6667 8.75556 12.6444 8.75556 13.6778C8.75556 14.4444 8.21111 15.6667 5.75556 15.6667C4.14672 15.6667 3.22407 15.1616 2.77539 14.4062C2.44778 13.8547 1.95393 13.3333 1.31241 13.3333C0.599503 13.3333 0.0119434 13.9458 0.253309 14.6166C0.722016 15.9193 1.77739 16.795 3.05536 17.2848C3.64255 17.5098 4.08889 18.0383 4.08889 18.6672C4.08889 19.4033 4.68562 20 5.42173 20H6.11546C6.83717 20 7.42222 19.4149 7.42222 18.6932C7.42222 18.0655 7.8751 17.5415 8.46714 17.3328C10.1173 16.7509 11.3111 15.5631 11.3111 13.6667C11.3111 10.5111 8.61111 9.43333 6.08889 8.77778Z" fill="#14B8A6"/>
</svg>
