<svg width="20" height="16" viewBox="0 0 20 16" fill="none" xmlns="http://www.w3.org/2000/svg">
<path d="M20 2C20 0.9 19.1 0 18 0H2C0.9 0 0 0.9 0 2V14C0 15.1 0.9 16 2 16H18C19.1 16 20 15.1 20 14V2ZM14.5132 2C15.5179 2 15.8952 3.31551 15.0432 3.848L10.53 6.66875C10.2057 6.87142 9.79427 6.87142 9.47 6.66875L4.9568 3.848C4.10482 3.31551 4.48211 2 5.4868 2H14.5132ZM18 13C18 13.5523 17.5523 14 17 14H3C2.44772 14 2 13.5523 2 13V5.80425C2 5.01881 2.86395 4.53997 3.53 4.95625L9.47 8.66875C9.79427 8.87142 10.2057 8.87142 10.53 8.66875L16.47 4.95625C17.136 4.53997 18 5.01881 18 5.80425V13Z" fill="#9593F3"/>
</svg>
