<svg width="18" height="17" viewBox="0 0 18 17" fill="none" xmlns="http://www.w3.org/2000/svg">
<path d="M0.738043 13.2707C-0.0338855 14.604 0.92823 16.2727 2.46889 16.2727H15.5311C17.0718 16.2727 18.0339 14.604 17.262 13.2707L10.7309 1.98966C9.96052 0.659088 8.03948 0.659085 7.26915 1.98965L0.738043 13.2707ZM9.90909 12.6364C9.90909 13.1384 9.50208 13.5455 9 13.5455V13.5455C8.49792 13.5455 8.09091 13.1384 8.09091 12.6364V12.6364C8.09091 12.1343 8.49792 11.7273 9 11.7273V11.7273C9.50208 11.7273 9.90909 12.1343 9.90909 12.6364V12.6364ZM9.90909 9C9.90909 9.50208 9.50208 9.90909 9 9.90909V9.90909C8.49792 9.90909 8.09091 9.50208 8.09091 9V7.18182C8.09091 6.67974 8.49792 6.27273 9 6.27273V6.27273C9.50208 6.27273 9.90909 6.67974 9.90909 7.18182V9Z" fill="#F47D7D"/>
</svg>
