<svg width="25" height="25" viewBox="0 0 25 25" fill="none" xmlns="http://www.w3.org/2000/svg">
<path d="M23.6842 3.94737C24.4109 3.94737 25 4.53647 25 5.26316V5.26316C25 5.98985 24.4109 6.57895 23.6842 6.57895H23.0263C21.9363 6.57895 21.0526 7.4626 21.0526 8.55263V9.21053C21.0526 9.93722 20.4635 10.5263 19.7368 10.5263V10.5263C19.0102 10.5263 18.4211 9.93722 18.4211 9.21053V8.55263C18.4211 7.4626 17.5374 6.57895 16.4474 6.57895H15.7895C15.0628 6.57895 14.4737 5.98985 14.4737 5.26316V5.26316C14.4737 4.53647 15.0628 3.94737 15.7895 3.94737H16.4474C17.5374 3.94737 18.4211 3.06372 18.4211 1.97369V1.31579C18.4211 0.5891 19.0102 0 19.7368 0V0C20.4635 0 21.0526 0.589099 21.0526 1.31579V1.97368C21.0526 3.06372 21.9363 3.94737 23.0263 3.94737H23.6842ZM21.0526 20.3684C21.0526 21.473 20.1572 22.3684 19.0526 22.3684H4.63158C3.52701 22.3684 2.63158 21.473 2.63158 20.3684V5.94736C2.63158 4.8428 3.52701 3.94737 4.63158 3.94737H9.21053C9.93722 3.94737 10.5263 3.35827 10.5263 2.63158V2.63158C10.5263 1.90489 9.93722 1.31579 9.21053 1.31579H2.63158C1.18421 1.31579 0 2.5 0 3.94737V22.3684C0 23.8158 1.18421 25 2.63158 25H21.0526C22.5 25 23.6842 23.8158 23.6842 22.3684V15.7895C23.6842 15.0628 23.0951 14.4737 22.3684 14.4737V14.4737C21.6417 14.4737 21.0526 15.0628 21.0526 15.7895V20.3684ZM17.1053 14.4737C16.3786 14.4737 15.7895 15.0628 15.7895 15.7895V18.4211C15.7895 19.1477 16.3786 19.7368 17.1053 19.7368V19.7368C17.832 19.7368 18.4211 19.1477 18.4211 18.4211V15.7895C18.4211 15.0628 17.832 14.4737 17.1053 14.4737V14.4737ZM10.5263 18.4211C10.5263 19.1477 11.1154 19.7368 11.8421 19.7368V19.7368C12.5688 19.7368 13.1579 19.1477 13.1579 18.4211V10.5263C13.1579 9.79963 12.5688 9.21053 11.8421 9.21053V9.21053C11.1154 9.21053 10.5263 9.79963 10.5263 10.5263V18.4211ZM6.57895 19.7368C7.30564 19.7368 7.89474 19.1477 7.89474 18.4211V13.1579C7.89474 12.4312 7.30564 11.8421 6.57895 11.8421V11.8421C5.85226 11.8421 5.26316 12.4312 5.26316 13.1579V18.4211C5.26316 19.1477 5.85226 19.7368 6.57895 19.7368V19.7368Z" fill="#F47D7D"/>
</svg>
