<svg width="25" height="25" viewBox="0 0 25 25" fill="none" xmlns="http://www.w3.org/2000/svg">
<path d="M18.5764 6.25C18.099 6.25 17.7083 6.64062 17.7083 7.11806C17.7083 7.59549 18.099 7.98611 18.5764 7.98611C19.0538 7.98611 19.4445 7.59549 19.4445 7.11806C19.4445 6.64062 19.0538 6.25 18.5764 6.25ZM17.2743 8.42014C16.7032 8.42014 16.2193 8.78559 16.0433 9.29599C15.9651 9.52259 16.1665 9.72222 16.4063 9.72222V9.72222C16.646 9.72222 16.8361 9.48538 17.038 9.35629C17.1057 9.31307 17.1866 9.28819 17.2743 9.28819C17.5174 9.28819 17.7083 9.47917 17.7083 9.72222C17.7083 9.96528 16.8403 11.1458 16.8403 11.8924C16.8403 12.6389 17.4219 13.1944 18.1424 13.1944C18.7135 13.1944 19.1973 12.829 19.3734 12.3186C19.4516 12.092 19.2501 11.8924 19.0104 11.8924V11.8924C18.7707 11.8924 18.5806 12.1292 18.3786 12.2583C18.311 12.3015 18.2301 12.3264 18.1424 12.3264C17.8993 12.3264 17.7083 12.1354 17.7083 11.8924C17.7083 11.5799 18.5764 10.2951 18.5764 9.72222C18.5764 9.0191 17.9948 8.42014 17.2743 8.42014Z" fill="#EED16B"/>
<path d="M22.2222 0H2.77778C1.25 0 0 1.25 0 2.77778V22.2222C0 23.75 1.25 25 2.77778 25H22.2222C23.75 25 25 23.75 25 22.2222V2.77778C25 1.25 23.75 0 22.2222 0ZM22.2222 20.2222C22.2222 21.3268 21.3268 22.2222 20.2222 22.2222H4.77778C3.67321 22.2222 2.77778 21.3268 2.77778 20.2222V4.77778C2.77778 3.67321 3.67321 2.77778 4.77778 2.77778H20.2222C21.3268 2.77778 22.2222 3.67321 22.2222 4.77778V20.2222ZM5.55556 11.1111C5.55556 10.344 6.17738 9.72222 6.94444 9.72222V9.72222C7.71151 9.72222 8.33333 10.344 8.33333 11.1111V18.0556C8.33333 18.8226 7.71151 19.4444 6.94444 19.4444V19.4444C6.17738 19.4444 5.55556 18.8226 5.55556 18.0556V11.1111ZM11.1111 6.94445C11.1111 6.17738 11.7329 5.55556 12.5 5.55556V5.55556C13.2671 5.55556 13.8889 6.17738 13.8889 6.94444V18.0556C13.8889 18.8226 13.2671 19.4444 12.5 19.4444V19.4444C11.7329 19.4444 11.1111 18.8226 11.1111 18.0556V6.94445ZM16.6667 15.2778C16.6667 14.5107 17.2885 13.8889 18.0556 13.8889V13.8889C18.8226 13.8889 19.4444 14.5107 19.4444 15.2778V18.0556C19.4444 18.8226 18.8226 19.4444 18.0556 19.4444V19.4444C17.2885 19.4444 16.6667 18.8226 16.6667 18.0556V15.2778Z" fill="#EED16B"/>
</svg>
