<svg width="20" height="23" viewBox="0 0 20 23" fill="none" xmlns="http://www.w3.org/2000/svg">
<path d="M2.85714 0C2.65714 0 2.48571 0.0285714 2.31429 0.0857143C1.28633 0.296576 0.452908 1.06669 0.150479 2.0596C0.0996438 2.22649 0.0343083 2.39219 0.0119339 2.56521C0 2.6575 0 2.75348 0 2.85714V18.5714C0 20.9429 1.91429 22.8571 4.28571 22.8571H18.5714C19.3604 22.8571 20 22.2175 20 21.4286V21.4286C20 20.6396 19.3604 20 18.5714 20H4.28571C3.48571 20 2.85714 19.3714 2.85714 18.5714C2.85714 17.7714 3.48571 17.1429 4.28571 17.1429H18C19.1046 17.1429 20 16.2474 20 15.1429V1.42857C20 0.628571 19.3714 0 18.5714 0V0C17.7825 0 17.1429 0.639593 17.1429 1.42857V5.71429C17.1429 6.76864 15.8681 7.29667 15.1226 6.55112V6.55112C14.6604 6.08895 13.911 6.08895 13.4489 6.55112V6.55112C12.7033 7.29667 11.4286 6.76864 11.4286 5.71428V2C11.4286 0.89543 10.5331 0 9.42857 0H2.85714Z" fill="#D787D9"/>
</svg>
